<svg width="16" height="16" viewBox="0 0 16 16" fill="none" xmlns="http://www.w3.org/2000/svg">
<path fill-rule="evenodd" clip-rule="evenodd" d="M16 7.50103C16 11.6437 12.418 15.0021 8 15.0021C7.20765 15.0032 6.41859 14.893 5.653 14.6742C5.069 14.9913 3.728 15.6 1.472 15.9965C1.272 16.0308 1.12 15.8079 1.199 15.6086C1.553 14.7127 1.873 13.519 1.969 12.4303C0.744 11.1122 0 9.387 0 7.50103C0 3.35832 3.582 0 8 0C12.418 0 16 3.35832 16 7.50103ZM5 7.50103C5 7.78523 4.89464 8.05779 4.70711 8.25875C4.51957 8.45971 4.26522 8.57261 4 8.57261C3.73478 8.57261 3.48043 8.45971 3.29289 8.25875C3.10536 8.05779 3 7.78523 3 7.50103C3 7.21683 3.10536 6.94427 3.29289 6.74331C3.48043 6.54235 3.73478 6.42945 4 6.42945C4.26522 6.42945 4.51957 6.54235 4.70711 6.74331C4.89464 6.94427 5 7.21683 5 7.50103V7.50103ZM9 7.50103C9 7.78523 8.89464 8.05779 8.70711 8.25875C8.51957 8.45971 8.26522 8.57261 8 8.57261C7.73478 8.57261 7.48043 8.45971 7.29289 8.25875C7.10536 8.05779 7 7.78523 7 7.50103C7 7.21683 7.10536 6.94427 7.29289 6.74331C7.48043 6.54235 7.73478 6.42945 8 6.42945C8.26522 6.42945 8.51957 6.54235 8.70711 6.74331C8.89464 6.94427 9 7.21683 9 7.50103ZM12 8.57261C12.2652 8.57261 12.5196 8.45971 12.7071 8.25875C12.8946 8.05779 13 7.78523 13 7.50103C13 7.21683 12.8946 6.94427 12.7071 6.74331C12.5196 6.54235 12.2652 6.42945 12 6.42945C11.7348 6.42945 11.4804 6.54235 11.2929 6.74331C11.1054 6.94427 11 7.21683 11 7.50103C11 7.78523 11.1054 8.05779 11.2929 8.25875C11.4804 8.45971 11.7348 8.57261 12 8.57261V8.57261Z" fill="#27AE60"/>
</svg>
